<svg width="512" height="512" viewBox="0 0 512 512" fill="none" xmlns="http://www.w3.org/2000/svg">
<g clip-path="url(#clip0_158_1024)">
<rect width="512" height="512" rx="256" fill="#94CE9A"/>
<path d="M260.078 437.2C254.211 437.2 249.411 435.2 245.678 431.2C241.945 427.467 240.078 422.8 240.078 417.2V381.6L249.278 390.4C230.878 389.867 214.478 387.467 200.078 383.2C185.945 378.933 173.945 374 164.078 368.4C159.278 365.467 155.945 361.867 154.078 357.6C152.211 353.067 151.545 348.533 152.078 344C152.611 339.467 154.211 335.6 156.878 332.4C159.811 328.933 163.411 326.8 167.678 326C171.945 324.933 176.878 326 182.478 329.2C189.945 333.467 199.678 337.6 211.678 341.6C223.945 345.333 238.611 347.2 255.678 347.2C269.011 347.2 279.811 345.6 288.078 342.4C296.345 339.2 302.345 334.8 306.078 329.2C310.078 323.6 312.078 317.2 312.078 310C312.078 304.133 310.745 299.067 308.078 294.8C305.411 290.267 301.011 286.4 294.878 283.2C288.745 279.733 280.478 276.933 270.078 274.8L227.678 265.6C203.411 260.267 185.278 251.333 173.278 238.8C161.278 226.267 155.278 209.867 155.278 189.6C155.278 173.867 159.145 159.867 166.878 147.6C174.611 135.067 185.411 125.067 199.278 117.6C213.145 110.133 229.411 105.733 248.078 104.4L240.078 110.4V76.8C240.078 71.2 241.945 66.5333 245.678 62.8C249.411 58.8 254.211 56.8 260.078 56.8C265.678 56.8 270.345 58.8 274.078 62.8C278.078 66.5333 280.078 71.2 280.078 76.8V110.4L271.678 104C283.145 104.267 295.678 106.533 309.278 110.8C323.145 115.067 335.011 121.067 344.878 128.8C348.878 132 351.545 135.733 352.878 140C354.211 144 354.345 148 353.278 152C352.211 155.733 350.211 158.933 347.278 161.6C344.345 164.267 340.611 165.867 336.078 166.4C331.811 166.667 326.878 165.2 321.278 162C313.545 157.467 304.878 153.867 295.278 151.2C285.678 148.267 274.211 146.8 260.878 146.8C243.811 146.8 230.345 150.667 220.478 158.4C210.878 165.867 206.078 175.733 206.078 188C206.078 197.067 209.011 204.4 214.878 210C220.745 215.333 230.745 219.6 244.878 222.8L288.478 232.4C314.078 238 332.878 246.933 344.878 259.2C356.878 271.2 362.878 287.067 362.878 306.8C362.878 322.267 359.011 336 351.278 348C343.545 359.733 332.878 369.2 319.278 376.4C305.945 383.333 290.345 387.733 272.478 389.6L280.078 381.2V417.2C280.078 422.8 278.211 427.467 274.478 431.2C270.745 435.2 265.945 437.2 260.078 437.2Z" fill="#203C25"/>
</g>
<defs>
<clipPath id="clip0_158_1024">
<rect width="512" height="512" rx="256" fill="white"/>
</clipPath>
</defs>
</svg>
